<mxfile host="Electron" modified="2024-09-14T09:44:10.025Z" agent="Mozilla/5.0 (Windows NT 10.0; Win64; x64) AppleWebKit/537.36 (KHTML, like Gecko) draw.io/24.5.1 Chrome/124.0.6367.207 Electron/30.0.6 Safari/537.36" etag="vk-8by7eykcCAXlcO-Mi" version="24.5.1" type="device">
  <diagram name="Page-1" id="kHtm3b1wpFjBLCpBBisX">
    <mxGraphModel dx="1383" dy="798" grid="1" gridSize="10" guides="1" tooltips="1" connect="1" arrows="1" fold="1" page="1" pageScale="1" pageWidth="827" pageHeight="1169" math="0" shadow="0">
      <root>
        <mxCell id="0" />
        <mxCell id="1" parent="0" />
        <mxCell id="pogYCEtZc0UTEIV33jCZ-1" value="rx[0&lt;span style=&quot;background-color: initial;&quot;&gt;]&lt;/span&gt;" style="text;html=1;align=center;verticalAlign=middle;whiteSpace=wrap;rounded=0;" vertex="1" parent="1">
          <mxGeometry x="40" y="460" width="40" height="40" as="geometry" />
        </mxCell>
        <mxCell id="pogYCEtZc0UTEIV33jCZ-2" value="rx[1&lt;span style=&quot;background-color: initial;&quot;&gt;]&lt;/span&gt;" style="text;html=1;align=center;verticalAlign=middle;whiteSpace=wrap;rounded=0;" vertex="1" parent="1">
          <mxGeometry x="40" y="500" width="40" height="40" as="geometry" />
        </mxCell>
        <mxCell id="pogYCEtZc0UTEIV33jCZ-3" value="" style="rounded=0;whiteSpace=wrap;html=1;" vertex="1" parent="1">
          <mxGeometry x="80" y="460" width="80" height="80" as="geometry" />
        </mxCell>
        <mxCell id="pogYCEtZc0UTEIV33jCZ-4" value="1,1 ... 1" style="text;html=1;align=center;verticalAlign=middle;whiteSpace=wrap;rounded=0;" vertex="1" parent="1">
          <mxGeometry x="80" y="460" width="80" height="40" as="geometry" />
        </mxCell>
        <mxCell id="pogYCEtZc0UTEIV33jCZ-5" value="1,1 ... 1" style="text;html=1;align=center;verticalAlign=middle;whiteSpace=wrap;rounded=0;" vertex="1" parent="1">
          <mxGeometry x="80" y="500" width="80" height="40" as="geometry" />
        </mxCell>
        <mxCell id="pogYCEtZc0UTEIV33jCZ-6" value="" style="rounded=0;whiteSpace=wrap;html=1;" vertex="1" parent="1">
          <mxGeometry x="160" y="460" width="40" height="80" as="geometry" />
        </mxCell>
        <mxCell id="pogYCEtZc0UTEIV33jCZ-8" value="0" style="text;html=1;align=center;verticalAlign=middle;whiteSpace=wrap;rounded=0;" vertex="1" parent="1">
          <mxGeometry x="160" y="460" width="40" height="40" as="geometry" />
        </mxCell>
        <mxCell id="pogYCEtZc0UTEIV33jCZ-9" value="0" style="text;html=1;align=center;verticalAlign=middle;whiteSpace=wrap;rounded=0;" vertex="1" parent="1">
          <mxGeometry x="160" y="500" width="40" height="40" as="geometry" />
        </mxCell>
        <mxCell id="pogYCEtZc0UTEIV33jCZ-10" value="" style="rounded=0;whiteSpace=wrap;html=1;" vertex="1" parent="1">
          <mxGeometry x="200" y="460" width="80" height="80" as="geometry" />
        </mxCell>
        <mxCell id="pogYCEtZc0UTEIV33jCZ-12" value="h[0]" style="text;html=1;align=center;verticalAlign=middle;whiteSpace=wrap;rounded=0;" vertex="1" parent="1">
          <mxGeometry x="200" y="460" width="40" height="40" as="geometry" />
        </mxCell>
        <mxCell id="pogYCEtZc0UTEIV33jCZ-13" value="h[1]" style="text;html=1;align=center;verticalAlign=middle;whiteSpace=wrap;rounded=0;" vertex="1" parent="1">
          <mxGeometry x="200" y="500" width="40" height="40" as="geometry" />
        </mxCell>
        <mxCell id="pogYCEtZc0UTEIV33jCZ-14" value="h[2]" style="text;html=1;align=center;verticalAlign=middle;whiteSpace=wrap;rounded=0;" vertex="1" parent="1">
          <mxGeometry x="240" y="460" width="40" height="40" as="geometry" />
        </mxCell>
        <mxCell id="pogYCEtZc0UTEIV33jCZ-15" value="h[3]" style="text;html=1;align=center;verticalAlign=middle;whiteSpace=wrap;rounded=0;" vertex="1" parent="1">
          <mxGeometry x="240" y="500" width="40" height="40" as="geometry" />
        </mxCell>
        <mxCell id="pogYCEtZc0UTEIV33jCZ-17" value="" style="rounded=0;whiteSpace=wrap;html=1;" vertex="1" parent="1">
          <mxGeometry x="280" y="460" width="320" height="80" as="geometry" />
        </mxCell>
        <mxCell id="pogYCEtZc0UTEIV33jCZ-23" value="d[0]" style="text;html=1;align=center;verticalAlign=middle;whiteSpace=wrap;rounded=0;" vertex="1" parent="1">
          <mxGeometry x="280" y="460" width="40" height="40" as="geometry" />
        </mxCell>
        <mxCell id="pogYCEtZc0UTEIV33jCZ-24" value="d[1]" style="text;html=1;align=center;verticalAlign=middle;whiteSpace=wrap;rounded=0;" vertex="1" parent="1">
          <mxGeometry x="280" y="500" width="40" height="40" as="geometry" />
        </mxCell>
        <mxCell id="pogYCEtZc0UTEIV33jCZ-25" value="d[2]" style="text;html=1;align=center;verticalAlign=middle;whiteSpace=wrap;rounded=0;" vertex="1" parent="1">
          <mxGeometry x="320" y="460" width="40" height="40" as="geometry" />
        </mxCell>
        <mxCell id="pogYCEtZc0UTEIV33jCZ-26" value="d[3]" style="text;html=1;align=center;verticalAlign=middle;whiteSpace=wrap;rounded=0;" vertex="1" parent="1">
          <mxGeometry x="320" y="500" width="40" height="40" as="geometry" />
        </mxCell>
        <mxCell id="pogYCEtZc0UTEIV33jCZ-27" value="d[4]" style="text;html=1;align=center;verticalAlign=middle;whiteSpace=wrap;rounded=0;" vertex="1" parent="1">
          <mxGeometry x="360" y="460" width="40" height="40" as="geometry" />
        </mxCell>
        <mxCell id="pogYCEtZc0UTEIV33jCZ-28" value="d[5]" style="text;html=1;align=center;verticalAlign=middle;whiteSpace=wrap;rounded=0;" vertex="1" parent="1">
          <mxGeometry x="360" y="500" width="40" height="40" as="geometry" />
        </mxCell>
        <mxCell id="pogYCEtZc0UTEIV33jCZ-29" value="d[6]" style="text;html=1;align=center;verticalAlign=middle;whiteSpace=wrap;rounded=0;" vertex="1" parent="1">
          <mxGeometry x="400" y="460" width="40" height="40" as="geometry" />
        </mxCell>
        <mxCell id="pogYCEtZc0UTEIV33jCZ-30" value="d[7]" style="text;html=1;align=center;verticalAlign=middle;whiteSpace=wrap;rounded=0;" vertex="1" parent="1">
          <mxGeometry x="400" y="500" width="40" height="40" as="geometry" />
        </mxCell>
        <mxCell id="pogYCEtZc0UTEIV33jCZ-31" value="d[8]" style="text;html=1;align=center;verticalAlign=middle;whiteSpace=wrap;rounded=0;" vertex="1" parent="1">
          <mxGeometry x="440" y="460" width="40" height="40" as="geometry" />
        </mxCell>
        <mxCell id="pogYCEtZc0UTEIV33jCZ-32" value="d[9]" style="text;html=1;align=center;verticalAlign=middle;whiteSpace=wrap;rounded=0;" vertex="1" parent="1">
          <mxGeometry x="440" y="500" width="40" height="40" as="geometry" />
        </mxCell>
        <mxCell id="pogYCEtZc0UTEIV33jCZ-33" value="d[10]" style="text;html=1;align=center;verticalAlign=middle;whiteSpace=wrap;rounded=0;" vertex="1" parent="1">
          <mxGeometry x="480" y="460" width="40" height="40" as="geometry" />
        </mxCell>
        <mxCell id="pogYCEtZc0UTEIV33jCZ-34" value="d[11]" style="text;html=1;align=center;verticalAlign=middle;whiteSpace=wrap;rounded=0;" vertex="1" parent="1">
          <mxGeometry x="480" y="500" width="40" height="40" as="geometry" />
        </mxCell>
        <mxCell id="pogYCEtZc0UTEIV33jCZ-35" value="d[12]" style="text;html=1;align=center;verticalAlign=middle;whiteSpace=wrap;rounded=0;" vertex="1" parent="1">
          <mxGeometry x="520" y="460" width="40" height="40" as="geometry" />
        </mxCell>
        <mxCell id="pogYCEtZc0UTEIV33jCZ-36" value="d[13]" style="text;html=1;align=center;verticalAlign=middle;whiteSpace=wrap;rounded=0;" vertex="1" parent="1">
          <mxGeometry x="520" y="500" width="40" height="40" as="geometry" />
        </mxCell>
        <mxCell id="pogYCEtZc0UTEIV33jCZ-37" value="d[14]" style="text;html=1;align=center;verticalAlign=middle;whiteSpace=wrap;rounded=0;" vertex="1" parent="1">
          <mxGeometry x="560" y="460" width="40" height="40" as="geometry" />
        </mxCell>
        <mxCell id="pogYCEtZc0UTEIV33jCZ-38" value="d[15]" style="text;html=1;align=center;verticalAlign=middle;whiteSpace=wrap;rounded=0;" vertex="1" parent="1">
          <mxGeometry x="560" y="500" width="40" height="40" as="geometry" />
        </mxCell>
        <mxCell id="pogYCEtZc0UTEIV33jCZ-39" value="" style="endArrow=classic;html=1;rounded=0;" edge="1" parent="1">
          <mxGeometry width="50" height="50" relative="1" as="geometry">
            <mxPoint x="80" y="560" as="sourcePoint" />
            <mxPoint x="800" y="560" as="targetPoint" />
          </mxGeometry>
        </mxCell>
        <mxCell id="pogYCEtZc0UTEIV33jCZ-41" value="time (cycles)" style="text;html=1;align=center;verticalAlign=middle;whiteSpace=wrap;rounded=0;" vertex="1" parent="1">
          <mxGeometry x="700" y="530" width="80" height="30" as="geometry" />
        </mxCell>
        <mxCell id="pogYCEtZc0UTEIV33jCZ-42" value="0" style="text;html=1;align=center;verticalAlign=middle;whiteSpace=wrap;rounded=0;" vertex="1" parent="1">
          <mxGeometry x="160" y="560" width="40" height="30" as="geometry" />
        </mxCell>
        <mxCell id="pogYCEtZc0UTEIV33jCZ-43" value="1" style="text;html=1;align=center;verticalAlign=middle;whiteSpace=wrap;rounded=0;" vertex="1" parent="1">
          <mxGeometry x="200" y="560" width="40" height="30" as="geometry" />
        </mxCell>
        <mxCell id="pogYCEtZc0UTEIV33jCZ-44" value="2" style="text;html=1;align=center;verticalAlign=middle;whiteSpace=wrap;rounded=0;" vertex="1" parent="1">
          <mxGeometry x="240" y="560" width="40" height="30" as="geometry" />
        </mxCell>
        <mxCell id="pogYCEtZc0UTEIV33jCZ-45" value="3" style="text;html=1;align=center;verticalAlign=middle;whiteSpace=wrap;rounded=0;" vertex="1" parent="1">
          <mxGeometry x="280" y="560" width="40" height="30" as="geometry" />
        </mxCell>
        <mxCell id="pogYCEtZc0UTEIV33jCZ-46" value="4" style="text;html=1;align=center;verticalAlign=middle;whiteSpace=wrap;rounded=0;" vertex="1" parent="1">
          <mxGeometry x="320" y="560" width="40" height="30" as="geometry" />
        </mxCell>
        <mxCell id="pogYCEtZc0UTEIV33jCZ-47" value="5" style="text;html=1;align=center;verticalAlign=middle;whiteSpace=wrap;rounded=0;" vertex="1" parent="1">
          <mxGeometry x="360" y="560" width="40" height="30" as="geometry" />
        </mxCell>
        <mxCell id="pogYCEtZc0UTEIV33jCZ-48" value="6" style="text;html=1;align=center;verticalAlign=middle;whiteSpace=wrap;rounded=0;" vertex="1" parent="1">
          <mxGeometry x="400" y="560" width="40" height="30" as="geometry" />
        </mxCell>
        <mxCell id="pogYCEtZc0UTEIV33jCZ-49" value="7" style="text;html=1;align=center;verticalAlign=middle;whiteSpace=wrap;rounded=0;" vertex="1" parent="1">
          <mxGeometry x="440" y="560" width="40" height="30" as="geometry" />
        </mxCell>
        <mxCell id="pogYCEtZc0UTEIV33jCZ-50" value="8" style="text;html=1;align=center;verticalAlign=middle;whiteSpace=wrap;rounded=0;" vertex="1" parent="1">
          <mxGeometry x="480" y="560" width="40" height="30" as="geometry" />
        </mxCell>
        <mxCell id="pogYCEtZc0UTEIV33jCZ-51" value="9" style="text;html=1;align=center;verticalAlign=middle;whiteSpace=wrap;rounded=0;" vertex="1" parent="1">
          <mxGeometry x="520" y="560" width="40" height="30" as="geometry" />
        </mxCell>
        <mxCell id="pogYCEtZc0UTEIV33jCZ-52" value="10" style="text;html=1;align=center;verticalAlign=middle;whiteSpace=wrap;rounded=0;" vertex="1" parent="1">
          <mxGeometry x="560" y="560" width="40" height="30" as="geometry" />
        </mxCell>
        <mxCell id="pogYCEtZc0UTEIV33jCZ-53" value="" style="rounded=0;whiteSpace=wrap;html=1;" vertex="1" parent="1">
          <mxGeometry x="600" y="460" width="80" height="80" as="geometry" />
        </mxCell>
        <mxCell id="pogYCEtZc0UTEIV33jCZ-54" value="1,1 ... 1" style="text;html=1;align=center;verticalAlign=middle;whiteSpace=wrap;rounded=0;" vertex="1" parent="1">
          <mxGeometry x="600" y="460" width="80" height="40" as="geometry" />
        </mxCell>
        <mxCell id="pogYCEtZc0UTEIV33jCZ-55" value="1,1 ... 1" style="text;html=1;align=center;verticalAlign=middle;whiteSpace=wrap;rounded=0;" vertex="1" parent="1">
          <mxGeometry x="600" y="500" width="80" height="40" as="geometry" />
        </mxCell>
        <mxCell id="pogYCEtZc0UTEIV33jCZ-56" value="" style="shape=curlyBracket;whiteSpace=wrap;html=1;rounded=1;labelPosition=left;verticalLabelPosition=middle;align=right;verticalAlign=middle;rotation=90;" vertex="1" parent="1">
          <mxGeometry x="110" y="400" width="20" height="80" as="geometry" />
        </mxCell>
        <mxCell id="pogYCEtZc0UTEIV33jCZ-57" value="" style="shape=curlyBracket;whiteSpace=wrap;html=1;rounded=1;labelPosition=left;verticalLabelPosition=middle;align=right;verticalAlign=middle;rotation=90;" vertex="1" parent="1">
          <mxGeometry x="170" y="420" width="20" height="40" as="geometry" />
        </mxCell>
        <mxCell id="pogYCEtZc0UTEIV33jCZ-58" value="" style="shape=curlyBracket;whiteSpace=wrap;html=1;rounded=1;labelPosition=left;verticalLabelPosition=middle;align=right;verticalAlign=middle;rotation=90;" vertex="1" parent="1">
          <mxGeometry x="230" y="400" width="20" height="80" as="geometry" />
        </mxCell>
        <mxCell id="pogYCEtZc0UTEIV33jCZ-59" value="" style="shape=curlyBracket;whiteSpace=wrap;html=1;rounded=1;labelPosition=left;verticalLabelPosition=middle;align=right;verticalAlign=middle;rotation=90;" vertex="1" parent="1">
          <mxGeometry x="430" y="280" width="20" height="320" as="geometry" />
        </mxCell>
        <mxCell id="pogYCEtZc0UTEIV33jCZ-60" value="" style="shape=curlyBracket;whiteSpace=wrap;html=1;rounded=1;labelPosition=left;verticalLabelPosition=middle;align=right;verticalAlign=middle;rotation=90;" vertex="1" parent="1">
          <mxGeometry x="630" y="400" width="20" height="80" as="geometry" />
        </mxCell>
        <mxCell id="pogYCEtZc0UTEIV33jCZ-61" value="idle" style="text;html=1;align=center;verticalAlign=middle;whiteSpace=wrap;rounded=0;" vertex="1" parent="1">
          <mxGeometry x="90" y="400" width="60" height="30" as="geometry" />
        </mxCell>
        <mxCell id="pogYCEtZc0UTEIV33jCZ-62" value="start&lt;div&gt;bit&lt;/div&gt;" style="text;html=1;align=center;verticalAlign=middle;whiteSpace=wrap;rounded=0;" vertex="1" parent="1">
          <mxGeometry x="150" y="400" width="60" height="30" as="geometry" />
        </mxCell>
        <mxCell id="pogYCEtZc0UTEIV33jCZ-63" value="header" style="text;html=1;align=center;verticalAlign=middle;whiteSpace=wrap;rounded=0;" vertex="1" parent="1">
          <mxGeometry x="210" y="400" width="60" height="30" as="geometry" />
        </mxCell>
        <mxCell id="pogYCEtZc0UTEIV33jCZ-64" value="data" style="text;html=1;align=center;verticalAlign=middle;whiteSpace=wrap;rounded=0;" vertex="1" parent="1">
          <mxGeometry x="410" y="400" width="60" height="30" as="geometry" />
        </mxCell>
        <mxCell id="pogYCEtZc0UTEIV33jCZ-65" value="idle" style="text;html=1;align=center;verticalAlign=middle;whiteSpace=wrap;rounded=0;" vertex="1" parent="1">
          <mxGeometry x="610" y="400" width="60" height="30" as="geometry" />
        </mxCell>
        <mxCell id="pogYCEtZc0UTEIV33jCZ-66" value="&lt;font style=&quot;font-size: 18px;&quot;&gt;RX messages: read/write address, write data, read/write count&lt;/font&gt;" style="text;html=1;align=left;verticalAlign=middle;whiteSpace=wrap;rounded=0;" vertex="1" parent="1">
          <mxGeometry x="40" y="360" width="510" height="30" as="geometry" />
        </mxCell>
        <mxCell id="pogYCEtZc0UTEIV33jCZ-67" value="tx[0&lt;span style=&quot;background-color: initial;&quot;&gt;]&lt;/span&gt;" style="text;html=1;align=center;verticalAlign=middle;whiteSpace=wrap;rounded=0;" vertex="1" parent="1">
          <mxGeometry x="40" y="200" width="40" height="40" as="geometry" />
        </mxCell>
        <mxCell id="pogYCEtZc0UTEIV33jCZ-68" value="tx[1&lt;span style=&quot;background-color: initial;&quot;&gt;]&lt;/span&gt;" style="text;html=1;align=center;verticalAlign=middle;whiteSpace=wrap;rounded=0;" vertex="1" parent="1">
          <mxGeometry x="40" y="240" width="40" height="40" as="geometry" />
        </mxCell>
        <mxCell id="pogYCEtZc0UTEIV33jCZ-69" value="" style="rounded=0;whiteSpace=wrap;html=1;" vertex="1" parent="1">
          <mxGeometry x="80" y="200" width="80" height="80" as="geometry" />
        </mxCell>
        <mxCell id="pogYCEtZc0UTEIV33jCZ-70" value="1 ... 1" style="text;html=1;align=center;verticalAlign=middle;whiteSpace=wrap;rounded=0;" vertex="1" parent="1">
          <mxGeometry x="80" y="200" width="80" height="40" as="geometry" />
        </mxCell>
        <mxCell id="pogYCEtZc0UTEIV33jCZ-71" value="1 ... 1" style="text;html=1;align=center;verticalAlign=middle;whiteSpace=wrap;rounded=0;" vertex="1" parent="1">
          <mxGeometry x="80" y="240" width="80" height="40" as="geometry" />
        </mxCell>
        <mxCell id="pogYCEtZc0UTEIV33jCZ-72" value="" style="rounded=0;whiteSpace=wrap;html=1;" vertex="1" parent="1">
          <mxGeometry x="160" y="200" width="40" height="80" as="geometry" />
        </mxCell>
        <mxCell id="pogYCEtZc0UTEIV33jCZ-73" value="0" style="text;html=1;align=center;verticalAlign=middle;whiteSpace=wrap;rounded=0;" vertex="1" parent="1">
          <mxGeometry x="160" y="200" width="40" height="40" as="geometry" />
        </mxCell>
        <mxCell id="pogYCEtZc0UTEIV33jCZ-74" value="0" style="text;html=1;align=center;verticalAlign=middle;whiteSpace=wrap;rounded=0;" vertex="1" parent="1">
          <mxGeometry x="160" y="240" width="40" height="40" as="geometry" />
        </mxCell>
        <mxCell id="pogYCEtZc0UTEIV33jCZ-75" value="" style="rounded=0;whiteSpace=wrap;html=1;" vertex="1" parent="1">
          <mxGeometry x="200" y="200" width="80" height="80" as="geometry" />
        </mxCell>
        <mxCell id="pogYCEtZc0UTEIV33jCZ-76" value="0" style="text;html=1;align=center;verticalAlign=middle;whiteSpace=wrap;rounded=0;" vertex="1" parent="1">
          <mxGeometry x="200" y="200" width="40" height="40" as="geometry" />
        </mxCell>
        <mxCell id="pogYCEtZc0UTEIV33jCZ-77" value="0" style="text;html=1;align=center;verticalAlign=middle;whiteSpace=wrap;rounded=0;" vertex="1" parent="1">
          <mxGeometry x="200" y="240" width="40" height="40" as="geometry" />
        </mxCell>
        <mxCell id="pogYCEtZc0UTEIV33jCZ-78" value="0" style="text;html=1;align=center;verticalAlign=middle;whiteSpace=wrap;rounded=0;" vertex="1" parent="1">
          <mxGeometry x="240" y="200" width="40" height="40" as="geometry" />
        </mxCell>
        <mxCell id="pogYCEtZc0UTEIV33jCZ-79" value="0" style="text;html=1;align=center;verticalAlign=middle;whiteSpace=wrap;rounded=0;" vertex="1" parent="1">
          <mxGeometry x="240" y="240" width="40" height="40" as="geometry" />
        </mxCell>
        <mxCell id="pogYCEtZc0UTEIV33jCZ-80" value="" style="rounded=0;whiteSpace=wrap;html=1;" vertex="1" parent="1">
          <mxGeometry x="280" y="200" width="320" height="80" as="geometry" />
        </mxCell>
        <mxCell id="pogYCEtZc0UTEIV33jCZ-81" value="d[0]" style="text;html=1;align=center;verticalAlign=middle;whiteSpace=wrap;rounded=0;" vertex="1" parent="1">
          <mxGeometry x="280" y="200" width="40" height="40" as="geometry" />
        </mxCell>
        <mxCell id="pogYCEtZc0UTEIV33jCZ-82" value="d[1]" style="text;html=1;align=center;verticalAlign=middle;whiteSpace=wrap;rounded=0;" vertex="1" parent="1">
          <mxGeometry x="280" y="240" width="40" height="40" as="geometry" />
        </mxCell>
        <mxCell id="pogYCEtZc0UTEIV33jCZ-83" value="d[2]" style="text;html=1;align=center;verticalAlign=middle;whiteSpace=wrap;rounded=0;" vertex="1" parent="1">
          <mxGeometry x="320" y="200" width="40" height="40" as="geometry" />
        </mxCell>
        <mxCell id="pogYCEtZc0UTEIV33jCZ-84" value="d[3]" style="text;html=1;align=center;verticalAlign=middle;whiteSpace=wrap;rounded=0;" vertex="1" parent="1">
          <mxGeometry x="320" y="240" width="40" height="40" as="geometry" />
        </mxCell>
        <mxCell id="pogYCEtZc0UTEIV33jCZ-85" value="d[4]" style="text;html=1;align=center;verticalAlign=middle;whiteSpace=wrap;rounded=0;" vertex="1" parent="1">
          <mxGeometry x="360" y="200" width="40" height="40" as="geometry" />
        </mxCell>
        <mxCell id="pogYCEtZc0UTEIV33jCZ-86" value="d[5]" style="text;html=1;align=center;verticalAlign=middle;whiteSpace=wrap;rounded=0;" vertex="1" parent="1">
          <mxGeometry x="360" y="240" width="40" height="40" as="geometry" />
        </mxCell>
        <mxCell id="pogYCEtZc0UTEIV33jCZ-87" value="d[6]" style="text;html=1;align=center;verticalAlign=middle;whiteSpace=wrap;rounded=0;" vertex="1" parent="1">
          <mxGeometry x="400" y="200" width="40" height="40" as="geometry" />
        </mxCell>
        <mxCell id="pogYCEtZc0UTEIV33jCZ-88" value="d[7]" style="text;html=1;align=center;verticalAlign=middle;whiteSpace=wrap;rounded=0;" vertex="1" parent="1">
          <mxGeometry x="400" y="240" width="40" height="40" as="geometry" />
        </mxCell>
        <mxCell id="pogYCEtZc0UTEIV33jCZ-89" value="d[8]" style="text;html=1;align=center;verticalAlign=middle;whiteSpace=wrap;rounded=0;" vertex="1" parent="1">
          <mxGeometry x="440" y="200" width="40" height="40" as="geometry" />
        </mxCell>
        <mxCell id="pogYCEtZc0UTEIV33jCZ-90" value="d[9]" style="text;html=1;align=center;verticalAlign=middle;whiteSpace=wrap;rounded=0;" vertex="1" parent="1">
          <mxGeometry x="440" y="240" width="40" height="40" as="geometry" />
        </mxCell>
        <mxCell id="pogYCEtZc0UTEIV33jCZ-91" value="d[10]" style="text;html=1;align=center;verticalAlign=middle;whiteSpace=wrap;rounded=0;" vertex="1" parent="1">
          <mxGeometry x="480" y="200" width="40" height="40" as="geometry" />
        </mxCell>
        <mxCell id="pogYCEtZc0UTEIV33jCZ-92" value="d[11]" style="text;html=1;align=center;verticalAlign=middle;whiteSpace=wrap;rounded=0;" vertex="1" parent="1">
          <mxGeometry x="480" y="240" width="40" height="40" as="geometry" />
        </mxCell>
        <mxCell id="pogYCEtZc0UTEIV33jCZ-93" value="d[12]" style="text;html=1;align=center;verticalAlign=middle;whiteSpace=wrap;rounded=0;" vertex="1" parent="1">
          <mxGeometry x="520" y="200" width="40" height="40" as="geometry" />
        </mxCell>
        <mxCell id="pogYCEtZc0UTEIV33jCZ-94" value="d[13]" style="text;html=1;align=center;verticalAlign=middle;whiteSpace=wrap;rounded=0;" vertex="1" parent="1">
          <mxGeometry x="520" y="240" width="40" height="40" as="geometry" />
        </mxCell>
        <mxCell id="pogYCEtZc0UTEIV33jCZ-95" value="d[14]" style="text;html=1;align=center;verticalAlign=middle;whiteSpace=wrap;rounded=0;" vertex="1" parent="1">
          <mxGeometry x="560" y="200" width="40" height="40" as="geometry" />
        </mxCell>
        <mxCell id="pogYCEtZc0UTEIV33jCZ-96" value="d[15]" style="text;html=1;align=center;verticalAlign=middle;whiteSpace=wrap;rounded=0;" vertex="1" parent="1">
          <mxGeometry x="560" y="240" width="40" height="40" as="geometry" />
        </mxCell>
        <mxCell id="pogYCEtZc0UTEIV33jCZ-97" value="" style="endArrow=classic;html=1;rounded=0;" edge="1" parent="1">
          <mxGeometry width="50" height="50" relative="1" as="geometry">
            <mxPoint x="80" y="300" as="sourcePoint" />
            <mxPoint x="800" y="300" as="targetPoint" />
          </mxGeometry>
        </mxCell>
        <mxCell id="pogYCEtZc0UTEIV33jCZ-98" value="time (cycles)" style="text;html=1;align=center;verticalAlign=middle;whiteSpace=wrap;rounded=0;" vertex="1" parent="1">
          <mxGeometry x="700" y="270" width="80" height="30" as="geometry" />
        </mxCell>
        <mxCell id="pogYCEtZc0UTEIV33jCZ-99" value="0" style="text;html=1;align=center;verticalAlign=middle;whiteSpace=wrap;rounded=0;" vertex="1" parent="1">
          <mxGeometry x="160" y="300" width="40" height="30" as="geometry" />
        </mxCell>
        <mxCell id="pogYCEtZc0UTEIV33jCZ-100" value="1" style="text;html=1;align=center;verticalAlign=middle;whiteSpace=wrap;rounded=0;" vertex="1" parent="1">
          <mxGeometry x="200" y="300" width="40" height="30" as="geometry" />
        </mxCell>
        <mxCell id="pogYCEtZc0UTEIV33jCZ-101" value="2" style="text;html=1;align=center;verticalAlign=middle;whiteSpace=wrap;rounded=0;" vertex="1" parent="1">
          <mxGeometry x="240" y="300" width="40" height="30" as="geometry" />
        </mxCell>
        <mxCell id="pogYCEtZc0UTEIV33jCZ-102" value="3" style="text;html=1;align=center;verticalAlign=middle;whiteSpace=wrap;rounded=0;" vertex="1" parent="1">
          <mxGeometry x="280" y="300" width="40" height="30" as="geometry" />
        </mxCell>
        <mxCell id="pogYCEtZc0UTEIV33jCZ-103" value="4" style="text;html=1;align=center;verticalAlign=middle;whiteSpace=wrap;rounded=0;" vertex="1" parent="1">
          <mxGeometry x="320" y="300" width="40" height="30" as="geometry" />
        </mxCell>
        <mxCell id="pogYCEtZc0UTEIV33jCZ-104" value="5" style="text;html=1;align=center;verticalAlign=middle;whiteSpace=wrap;rounded=0;" vertex="1" parent="1">
          <mxGeometry x="360" y="300" width="40" height="30" as="geometry" />
        </mxCell>
        <mxCell id="pogYCEtZc0UTEIV33jCZ-105" value="6" style="text;html=1;align=center;verticalAlign=middle;whiteSpace=wrap;rounded=0;" vertex="1" parent="1">
          <mxGeometry x="400" y="300" width="40" height="30" as="geometry" />
        </mxCell>
        <mxCell id="pogYCEtZc0UTEIV33jCZ-106" value="7" style="text;html=1;align=center;verticalAlign=middle;whiteSpace=wrap;rounded=0;" vertex="1" parent="1">
          <mxGeometry x="440" y="300" width="40" height="30" as="geometry" />
        </mxCell>
        <mxCell id="pogYCEtZc0UTEIV33jCZ-107" value="8" style="text;html=1;align=center;verticalAlign=middle;whiteSpace=wrap;rounded=0;" vertex="1" parent="1">
          <mxGeometry x="480" y="300" width="40" height="30" as="geometry" />
        </mxCell>
        <mxCell id="pogYCEtZc0UTEIV33jCZ-108" value="9" style="text;html=1;align=center;verticalAlign=middle;whiteSpace=wrap;rounded=0;" vertex="1" parent="1">
          <mxGeometry x="520" y="300" width="40" height="30" as="geometry" />
        </mxCell>
        <mxCell id="pogYCEtZc0UTEIV33jCZ-109" value="10" style="text;html=1;align=center;verticalAlign=middle;whiteSpace=wrap;rounded=0;" vertex="1" parent="1">
          <mxGeometry x="560" y="300" width="40" height="30" as="geometry" />
        </mxCell>
        <mxCell id="pogYCEtZc0UTEIV33jCZ-110" value="" style="rounded=0;whiteSpace=wrap;html=1;" vertex="1" parent="1">
          <mxGeometry x="600" y="200" width="80" height="80" as="geometry" />
        </mxCell>
        <mxCell id="pogYCEtZc0UTEIV33jCZ-111" value="1 ... 1" style="text;html=1;align=center;verticalAlign=middle;whiteSpace=wrap;rounded=0;" vertex="1" parent="1">
          <mxGeometry x="600" y="200" width="80" height="40" as="geometry" />
        </mxCell>
        <mxCell id="pogYCEtZc0UTEIV33jCZ-112" value="1 ... 1" style="text;html=1;align=center;verticalAlign=middle;whiteSpace=wrap;rounded=0;" vertex="1" parent="1">
          <mxGeometry x="600" y="240" width="80" height="40" as="geometry" />
        </mxCell>
        <mxCell id="pogYCEtZc0UTEIV33jCZ-113" value="" style="shape=curlyBracket;whiteSpace=wrap;html=1;rounded=1;labelPosition=left;verticalLabelPosition=middle;align=right;verticalAlign=middle;rotation=90;" vertex="1" parent="1">
          <mxGeometry x="110" y="140" width="20" height="80" as="geometry" />
        </mxCell>
        <mxCell id="pogYCEtZc0UTEIV33jCZ-114" value="" style="shape=curlyBracket;whiteSpace=wrap;html=1;rounded=1;labelPosition=left;verticalLabelPosition=middle;align=right;verticalAlign=middle;rotation=90;" vertex="1" parent="1">
          <mxGeometry x="170" y="160" width="20" height="40" as="geometry" />
        </mxCell>
        <mxCell id="pogYCEtZc0UTEIV33jCZ-115" value="" style="shape=curlyBracket;whiteSpace=wrap;html=1;rounded=1;labelPosition=left;verticalLabelPosition=middle;align=right;verticalAlign=middle;rotation=90;" vertex="1" parent="1">
          <mxGeometry x="230" y="140" width="20" height="80" as="geometry" />
        </mxCell>
        <mxCell id="pogYCEtZc0UTEIV33jCZ-116" value="" style="shape=curlyBracket;whiteSpace=wrap;html=1;rounded=1;labelPosition=left;verticalLabelPosition=middle;align=right;verticalAlign=middle;rotation=90;" vertex="1" parent="1">
          <mxGeometry x="430" y="20" width="20" height="320" as="geometry" />
        </mxCell>
        <mxCell id="pogYCEtZc0UTEIV33jCZ-117" value="" style="shape=curlyBracket;whiteSpace=wrap;html=1;rounded=1;labelPosition=left;verticalLabelPosition=middle;align=right;verticalAlign=middle;rotation=90;" vertex="1" parent="1">
          <mxGeometry x="630" y="140" width="20" height="80" as="geometry" />
        </mxCell>
        <mxCell id="pogYCEtZc0UTEIV33jCZ-118" value="idle" style="text;html=1;align=center;verticalAlign=middle;whiteSpace=wrap;rounded=0;" vertex="1" parent="1">
          <mxGeometry x="90" y="140" width="60" height="30" as="geometry" />
        </mxCell>
        <mxCell id="pogYCEtZc0UTEIV33jCZ-119" value="start&lt;div&gt;bit&lt;/div&gt;" style="text;html=1;align=center;verticalAlign=middle;whiteSpace=wrap;rounded=0;" vertex="1" parent="1">
          <mxGeometry x="150" y="140" width="60" height="30" as="geometry" />
        </mxCell>
        <mxCell id="pogYCEtZc0UTEIV33jCZ-120" value="header" style="text;html=1;align=center;verticalAlign=middle;whiteSpace=wrap;rounded=0;" vertex="1" parent="1">
          <mxGeometry x="210" y="140" width="60" height="30" as="geometry" />
        </mxCell>
        <mxCell id="pogYCEtZc0UTEIV33jCZ-121" value="data" style="text;html=1;align=center;verticalAlign=middle;whiteSpace=wrap;rounded=0;" vertex="1" parent="1">
          <mxGeometry x="410" y="140" width="60" height="30" as="geometry" />
        </mxCell>
        <mxCell id="pogYCEtZc0UTEIV33jCZ-122" value="idle" style="text;html=1;align=center;verticalAlign=middle;whiteSpace=wrap;rounded=0;" vertex="1" parent="1">
          <mxGeometry x="610" y="140" width="60" height="30" as="geometry" />
        </mxCell>
        <mxCell id="pogYCEtZc0UTEIV33jCZ-123" value="&lt;font style=&quot;font-size: 18px;&quot;&gt;TX messages: read data&lt;/font&gt;" style="text;html=1;align=left;verticalAlign=middle;whiteSpace=wrap;rounded=0;" vertex="1" parent="1">
          <mxGeometry x="40" y="100" width="240" height="30" as="geometry" />
        </mxCell>
        <mxCell id="pogYCEtZc0UTEIV33jCZ-124" value="0b0101" style="rounded=0;whiteSpace=wrap;html=1;" vertex="1" parent="1">
          <mxGeometry x="880" y="740" width="60" height="20" as="geometry" />
        </mxCell>
        <mxCell id="pogYCEtZc0UTEIV33jCZ-125" value="&lt;font style=&quot;font-size: 10px;&quot;&gt;set read count&lt;/font&gt;" style="text;html=1;align=left;verticalAlign=middle;whiteSpace=wrap;rounded=0;" vertex="1" parent="1">
          <mxGeometry x="760" y="740" width="120" height="20" as="geometry" />
        </mxCell>
        <mxCell id="pogYCEtZc0UTEIV33jCZ-126" value="&lt;font style=&quot;font-size: 10px;&quot;&gt;set read+write count&lt;/font&gt;" style="text;html=1;align=left;verticalAlign=middle;whiteSpace=wrap;rounded=0;" vertex="1" parent="1">
          <mxGeometry x="760" y="780" width="120" height="20" as="geometry" />
        </mxCell>
        <mxCell id="pogYCEtZc0UTEIV33jCZ-127" value="&lt;font style=&quot;font-size: 10px;&quot;&gt;set read+write address&lt;/font&gt;" style="text;html=1;align=left;verticalAlign=middle;whiteSpace=wrap;rounded=0;" vertex="1" parent="1">
          <mxGeometry x="760" y="850" width="120" height="20" as="geometry" />
        </mxCell>
        <mxCell id="pogYCEtZc0UTEIV33jCZ-128" value="&lt;font style=&quot;font-size: 10px;&quot;&gt;set write count&lt;/font&gt;" style="text;html=1;align=left;verticalAlign=middle;whiteSpace=wrap;rounded=0;" vertex="1" parent="1">
          <mxGeometry x="760" y="760" width="120" height="20" as="geometry" />
        </mxCell>
        <mxCell id="pogYCEtZc0UTEIV33jCZ-129" value="&lt;font style=&quot;font-size: 10px;&quot;&gt;send read&lt;span style=&quot;background-color: initial;&quot;&gt;&amp;nbsp;address&lt;/span&gt;&lt;/font&gt;" style="text;html=1;align=left;verticalAlign=middle;whiteSpace=wrap;rounded=0;" vertex="1" parent="1">
          <mxGeometry x="760" y="810" width="120" height="20" as="geometry" />
        </mxCell>
        <mxCell id="pogYCEtZc0UTEIV33jCZ-130" value="&lt;font style=&quot;font-size: 10px;&quot;&gt;send write&lt;span style=&quot;background-color: initial;&quot;&gt;&amp;nbsp;address&lt;/span&gt;&lt;/font&gt;" style="text;html=1;align=left;verticalAlign=middle;whiteSpace=wrap;rounded=0;" vertex="1" parent="1">
          <mxGeometry x="760" y="830" width="120" height="20" as="geometry" />
        </mxCell>
        <mxCell id="pogYCEtZc0UTEIV33jCZ-131" value="&lt;span style=&quot;font-size: 10px;&quot;&gt;send write data&lt;/span&gt;" style="text;html=1;align=left;verticalAlign=middle;whiteSpace=wrap;rounded=0;" vertex="1" parent="1">
          <mxGeometry x="760" y="880" width="120" height="20" as="geometry" />
        </mxCell>
        <mxCell id="pogYCEtZc0UTEIV33jCZ-132" value="0b1010" style="rounded=0;whiteSpace=wrap;html=1;" vertex="1" parent="1">
          <mxGeometry x="880" y="760" width="60" height="20" as="geometry" />
        </mxCell>
        <mxCell id="pogYCEtZc0UTEIV33jCZ-133" value="0b0000" style="rounded=0;whiteSpace=wrap;html=1;" vertex="1" parent="1">
          <mxGeometry x="880" y="780" width="60" height="20" as="geometry" />
        </mxCell>
        <mxCell id="pogYCEtZc0UTEIV33jCZ-134" value="0b0111" style="rounded=0;whiteSpace=wrap;html=1;" vertex="1" parent="1">
          <mxGeometry x="880" y="810" width="60" height="20" as="geometry" />
        </mxCell>
        <mxCell id="pogYCEtZc0UTEIV33jCZ-135" value="0b1011" style="rounded=0;whiteSpace=wrap;html=1;" vertex="1" parent="1">
          <mxGeometry x="880" y="830" width="60" height="20" as="geometry" />
        </mxCell>
        <mxCell id="pogYCEtZc0UTEIV33jCZ-136" value="0b0&lt;span style=&quot;background-color: initial;&quot;&gt;011&lt;/span&gt;" style="rounded=0;whiteSpace=wrap;html=1;" vertex="1" parent="1">
          <mxGeometry x="880" y="850" width="60" height="20" as="geometry" />
        </mxCell>
        <mxCell id="pogYCEtZc0UTEIV33jCZ-137" value="0b&lt;span style=&quot;background-color: initial;&quot;&gt;1110&lt;/span&gt;" style="rounded=0;whiteSpace=wrap;html=1;" vertex="1" parent="1">
          <mxGeometry x="880" y="880" width="60" height="20" as="geometry" />
        </mxCell>
        <mxCell id="pogYCEtZc0UTEIV33jCZ-138" value="header" style="text;html=1;align=center;verticalAlign=middle;whiteSpace=wrap;rounded=0;" vertex="1" parent="1">
          <mxGeometry x="880" y="710" width="60" height="30" as="geometry" />
        </mxCell>
        <mxCell id="pogYCEtZc0UTEIV33jCZ-139" value="count" style="rounded=0;whiteSpace=wrap;html=1;" vertex="1" parent="1">
          <mxGeometry x="940" y="740" width="60" height="60" as="geometry" />
        </mxCell>
        <mxCell id="pogYCEtZc0UTEIV33jCZ-140" value="data" style="text;html=1;align=center;verticalAlign=middle;whiteSpace=wrap;rounded=0;" vertex="1" parent="1">
          <mxGeometry x="940" y="710" width="60" height="30" as="geometry" />
        </mxCell>
        <mxCell id="pogYCEtZc0UTEIV33jCZ-141" value="address" style="rounded=0;whiteSpace=wrap;html=1;" vertex="1" parent="1">
          <mxGeometry x="940" y="810" width="60" height="60" as="geometry" />
        </mxCell>
        <mxCell id="pogYCEtZc0UTEIV33jCZ-142" value="data" style="rounded=0;whiteSpace=wrap;html=1;" vertex="1" parent="1">
          <mxGeometry x="940" y="880" width="60" height="20" as="geometry" />
        </mxCell>
        <mxCell id="pogYCEtZc0UTEIV33jCZ-143" value="&lt;font style=&quot;font-size: 15px;&quot;&gt;RX message types&lt;/font&gt;" style="text;html=1;align=left;verticalAlign=middle;whiteSpace=wrap;rounded=0;" vertex="1" parent="1">
          <mxGeometry x="740" y="690" width="160" height="30" as="geometry" />
        </mxCell>
        <mxCell id="pogYCEtZc0UTEIV33jCZ-145" value="&lt;font style=&quot;font-size: 18px;&quot;&gt;Reading from memory&lt;/font&gt;" style="text;html=1;align=left;verticalAlign=middle;whiteSpace=wrap;rounded=0;" vertex="1" parent="1">
          <mxGeometry x="40" y="630" width="200" height="30" as="geometry" />
        </mxCell>
        <mxCell id="pogYCEtZc0UTEIV33jCZ-146" value="set read&lt;div&gt;count 1&lt;/div&gt;" style="rounded=0;whiteSpace=wrap;html=1;dashed=1;dashPattern=1 1;" vertex="1" parent="1">
          <mxGeometry x="80" y="680" width="60" height="40" as="geometry" />
        </mxCell>
        <mxCell id="pogYCEtZc0UTEIV33jCZ-147" value="rx:" style="text;html=1;align=center;verticalAlign=middle;whiteSpace=wrap;rounded=0;" vertex="1" parent="1">
          <mxGeometry x="40" y="680" width="40" height="40" as="geometry" />
        </mxCell>
        <mxCell id="pogYCEtZc0UTEIV33jCZ-175" style="edgeStyle=orthogonalEdgeStyle;rounded=0;orthogonalLoop=1;jettySize=auto;html=1;entryX=0;entryY=0.5;entryDx=0;entryDy=0;exitX=0.5;exitY=1;exitDx=0;exitDy=0;" edge="1" parent="1" source="pogYCEtZc0UTEIV33jCZ-148" target="pogYCEtZc0UTEIV33jCZ-153">
          <mxGeometry relative="1" as="geometry" />
        </mxCell>
        <mxCell id="pogYCEtZc0UTEIV33jCZ-148" value="send read address 1" style="rounded=0;whiteSpace=wrap;html=1;" vertex="1" parent="1">
          <mxGeometry x="140" y="680" width="60" height="40" as="geometry" />
        </mxCell>
        <mxCell id="pogYCEtZc0UTEIV33jCZ-149" value="&lt;font style=&quot;font-size: 8px;&quot;&gt;optional&lt;/font&gt;" style="text;html=1;align=center;verticalAlign=middle;whiteSpace=wrap;rounded=0;" vertex="1" parent="1">
          <mxGeometry x="210" y="660" width="30" height="10" as="geometry" />
        </mxCell>
        <mxCell id="pogYCEtZc0UTEIV33jCZ-151" value="" style="endArrow=none;html=1;rounded=0;strokeWidth=0.5;dashed=1;" edge="1" parent="1">
          <mxGeometry width="50" height="50" relative="1" as="geometry">
            <mxPoint x="110" y="680" as="sourcePoint" />
            <mxPoint x="200" y="670" as="targetPoint" />
          </mxGeometry>
        </mxCell>
        <mxCell id="pogYCEtZc0UTEIV33jCZ-152" value="tx:" style="text;html=1;align=center;verticalAlign=middle;whiteSpace=wrap;rounded=0;" vertex="1" parent="1">
          <mxGeometry x="40" y="720" width="40" height="40" as="geometry" />
        </mxCell>
        <mxCell id="pogYCEtZc0UTEIV33jCZ-153" value="get read data 1:1" style="rounded=0;whiteSpace=wrap;html=1;" vertex="1" parent="1">
          <mxGeometry x="260" y="720" width="60" height="40" as="geometry" />
        </mxCell>
        <mxCell id="pogYCEtZc0UTEIV33jCZ-154" value="get read data 1:2" style="rounded=0;whiteSpace=wrap;html=1;" vertex="1" parent="1">
          <mxGeometry x="320" y="720" width="60" height="40" as="geometry" />
        </mxCell>
        <mxCell id="pogYCEtZc0UTEIV33jCZ-155" value="..." style="text;html=1;align=center;verticalAlign=middle;whiteSpace=wrap;rounded=0;" vertex="1" parent="1">
          <mxGeometry x="210" y="730" width="40" height="30" as="geometry" />
        </mxCell>
        <mxCell id="pogYCEtZc0UTEIV33jCZ-156" value="..." style="text;html=1;align=center;verticalAlign=middle;whiteSpace=wrap;rounded=0;" vertex="1" parent="1">
          <mxGeometry x="380" y="720" width="20" height="40" as="geometry" />
        </mxCell>
        <mxCell id="pogYCEtZc0UTEIV33jCZ-157" value="get read data 1:n" style="rounded=0;whiteSpace=wrap;html=1;" vertex="1" parent="1">
          <mxGeometry x="400" y="720" width="60" height="40" as="geometry" />
        </mxCell>
        <mxCell id="pogYCEtZc0UTEIV33jCZ-158" value="&lt;font style=&quot;font-size: 8px;&quot;&gt;at least one idle cycle between messages&lt;/font&gt;" style="text;html=1;align=center;verticalAlign=middle;whiteSpace=wrap;rounded=0;" vertex="1" parent="1">
          <mxGeometry x="680" y="360" width="90" height="30" as="geometry" />
        </mxCell>
        <mxCell id="pogYCEtZc0UTEIV33jCZ-159" value="" style="endArrow=none;html=1;rounded=0;entryX=0;entryY=0.5;entryDx=0;entryDy=0;strokeWidth=0.5;dashed=1;" edge="1" parent="1" target="pogYCEtZc0UTEIV33jCZ-158">
          <mxGeometry width="50" height="50" relative="1" as="geometry">
            <mxPoint x="650" y="400" as="sourcePoint" />
            <mxPoint x="700" y="350" as="targetPoint" />
          </mxGeometry>
        </mxCell>
        <mxCell id="pogYCEtZc0UTEIV33jCZ-160" value="" style="shape=curlyBracket;whiteSpace=wrap;html=1;rounded=1;labelPosition=left;verticalLabelPosition=middle;align=right;verticalAlign=middle;rotation=-90;" vertex="1" parent="1">
          <mxGeometry x="350" y="680" width="20" height="200" as="geometry" />
        </mxCell>
        <mxCell id="pogYCEtZc0UTEIV33jCZ-161" value="&amp;lt;read count 1&amp;gt;&amp;nbsp;&lt;span style=&quot;background-color: initial;&quot;&gt;messages&lt;/span&gt;" style="text;html=1;align=center;verticalAlign=middle;whiteSpace=wrap;rounded=0;" vertex="1" parent="1">
          <mxGeometry x="280" y="790" width="160" height="30" as="geometry" />
        </mxCell>
        <mxCell id="pogYCEtZc0UTEIV33jCZ-162" value="" style="endArrow=classic;html=1;rounded=0;entryX=1;entryY=1;entryDx=0;entryDy=0;" edge="1" parent="1" target="pogYCEtZc0UTEIV33jCZ-163">
          <mxGeometry width="50" height="50" relative="1" as="geometry">
            <mxPoint x="80" y="819.33" as="sourcePoint" />
            <mxPoint x="800" y="820" as="targetPoint" />
          </mxGeometry>
        </mxCell>
        <mxCell id="pogYCEtZc0UTEIV33jCZ-163" value="time" style="text;html=1;align=center;verticalAlign=middle;whiteSpace=wrap;rounded=0;" vertex="1" parent="1">
          <mxGeometry x="640" y="790" width="80" height="30" as="geometry" />
        </mxCell>
        <mxCell id="pogYCEtZc0UTEIV33jCZ-165" value="set read&lt;div&gt;count 2&lt;/div&gt;" style="rounded=0;whiteSpace=wrap;html=1;dashed=1;dashPattern=1 1;" vertex="1" parent="1">
          <mxGeometry x="280" y="680" width="60" height="40" as="geometry" />
        </mxCell>
        <mxCell id="pogYCEtZc0UTEIV33jCZ-176" style="edgeStyle=orthogonalEdgeStyle;rounded=0;orthogonalLoop=1;jettySize=auto;html=1;entryX=0.5;entryY=0;entryDx=0;entryDy=0;" edge="1" parent="1" source="pogYCEtZc0UTEIV33jCZ-166" target="pogYCEtZc0UTEIV33jCZ-168">
          <mxGeometry relative="1" as="geometry" />
        </mxCell>
        <mxCell id="pogYCEtZc0UTEIV33jCZ-166" value="send read address 2" style="rounded=0;whiteSpace=wrap;html=1;" vertex="1" parent="1">
          <mxGeometry x="340" y="680" width="60" height="40" as="geometry" />
        </mxCell>
        <mxCell id="pogYCEtZc0UTEIV33jCZ-168" value="get read data 2:1" style="rounded=0;whiteSpace=wrap;html=1;" vertex="1" parent="1">
          <mxGeometry x="460" y="720" width="60" height="40" as="geometry" />
        </mxCell>
        <mxCell id="pogYCEtZc0UTEIV33jCZ-169" value="get read data 2:2" style="rounded=0;whiteSpace=wrap;html=1;" vertex="1" parent="1">
          <mxGeometry x="520" y="720" width="60" height="40" as="geometry" />
        </mxCell>
        <mxCell id="pogYCEtZc0UTEIV33jCZ-170" value="..." style="text;html=1;align=center;verticalAlign=middle;whiteSpace=wrap;rounded=0;" vertex="1" parent="1">
          <mxGeometry x="580" y="720" width="20" height="40" as="geometry" />
        </mxCell>
        <mxCell id="pogYCEtZc0UTEIV33jCZ-171" value="get read data 2:n" style="rounded=0;whiteSpace=wrap;html=1;" vertex="1" parent="1">
          <mxGeometry x="600" y="720" width="60" height="40" as="geometry" />
        </mxCell>
        <mxCell id="pogYCEtZc0UTEIV33jCZ-177" value="" style="endArrow=none;html=1;rounded=0;strokeWidth=0.5;dashed=1;entryX=0;entryY=1;entryDx=0;entryDy=0;" edge="1" parent="1">
          <mxGeometry width="50" height="50" relative="1" as="geometry">
            <mxPoint x="245" y="671" as="sourcePoint" />
            <mxPoint x="310" y="680" as="targetPoint" />
          </mxGeometry>
        </mxCell>
        <mxCell id="pogYCEtZc0UTEIV33jCZ-179" value="" style="shape=curlyBracket;whiteSpace=wrap;html=1;rounded=1;labelPosition=left;verticalLabelPosition=middle;align=right;verticalAlign=middle;rotation=-90;" vertex="1" parent="1">
          <mxGeometry x="550" y="680" width="20" height="200" as="geometry" />
        </mxCell>
        <mxCell id="pogYCEtZc0UTEIV33jCZ-180" value="&amp;lt;read count 2&amp;gt;&amp;nbsp;&lt;span style=&quot;background-color: initial;&quot;&gt;messages&lt;/span&gt;" style="text;html=1;align=center;verticalAlign=middle;whiteSpace=wrap;rounded=0;" vertex="1" parent="1">
          <mxGeometry x="480" y="790" width="160" height="30" as="geometry" />
        </mxCell>
        <mxCell id="pogYCEtZc0UTEIV33jCZ-182" value="&lt;font style=&quot;font-size: 18px;&quot;&gt;Writing to memory&lt;/font&gt;" style="text;html=1;align=left;verticalAlign=middle;whiteSpace=wrap;rounded=0;" vertex="1" parent="1">
          <mxGeometry x="40" y="850" width="160" height="30" as="geometry" />
        </mxCell>
        <mxCell id="pogYCEtZc0UTEIV33jCZ-183" value="rx:" style="text;html=1;align=center;verticalAlign=middle;whiteSpace=wrap;rounded=0;" vertex="1" parent="1">
          <mxGeometry x="40" y="900" width="40" height="40" as="geometry" />
        </mxCell>
        <mxCell id="pogYCEtZc0UTEIV33jCZ-184" value="" style="endArrow=classic;html=1;rounded=0;entryX=1;entryY=1;entryDx=0;entryDy=0;" edge="1" parent="1" target="pogYCEtZc0UTEIV33jCZ-185">
          <mxGeometry width="50" height="50" relative="1" as="geometry">
            <mxPoint x="80" y="999.3299999999999" as="sourcePoint" />
            <mxPoint x="800" y="1000" as="targetPoint" />
          </mxGeometry>
        </mxCell>
        <mxCell id="pogYCEtZc0UTEIV33jCZ-185" value="time" style="text;html=1;align=center;verticalAlign=middle;whiteSpace=wrap;rounded=0;" vertex="1" parent="1">
          <mxGeometry x="720" y="970" width="80" height="30" as="geometry" />
        </mxCell>
        <mxCell id="pogYCEtZc0UTEIV33jCZ-186" value="set write&lt;div&gt;count 1&lt;/div&gt;" style="rounded=0;whiteSpace=wrap;html=1;dashed=1;dashPattern=1 1;" vertex="1" parent="1">
          <mxGeometry x="80" y="900" width="60" height="40" as="geometry" />
        </mxCell>
        <mxCell id="pogYCEtZc0UTEIV33jCZ-187" value="send write address 1" style="rounded=0;whiteSpace=wrap;html=1;" vertex="1" parent="1">
          <mxGeometry x="140" y="900" width="60" height="40" as="geometry" />
        </mxCell>
        <mxCell id="pogYCEtZc0UTEIV33jCZ-188" value="send write data 1:1" style="rounded=0;whiteSpace=wrap;html=1;" vertex="1" parent="1">
          <mxGeometry x="200" y="900" width="60" height="40" as="geometry" />
        </mxCell>
        <mxCell id="pogYCEtZc0UTEIV33jCZ-189" value="send write data 1:2" style="rounded=0;whiteSpace=wrap;html=1;" vertex="1" parent="1">
          <mxGeometry x="260" y="900" width="60" height="40" as="geometry" />
        </mxCell>
        <mxCell id="pogYCEtZc0UTEIV33jCZ-190" value="..." style="text;html=1;align=center;verticalAlign=middle;whiteSpace=wrap;rounded=0;" vertex="1" parent="1">
          <mxGeometry x="320" y="900" width="20" height="40" as="geometry" />
        </mxCell>
        <mxCell id="pogYCEtZc0UTEIV33jCZ-191" value="send write data 1:n" style="rounded=0;whiteSpace=wrap;html=1;" vertex="1" parent="1">
          <mxGeometry x="340" y="900" width="60" height="40" as="geometry" />
        </mxCell>
        <mxCell id="pogYCEtZc0UTEIV33jCZ-192" value="set write&lt;div&gt;count 2&lt;/div&gt;" style="rounded=0;whiteSpace=wrap;html=1;dashed=1;dashPattern=1 1;" vertex="1" parent="1">
          <mxGeometry x="400" y="900" width="60" height="40" as="geometry" />
        </mxCell>
        <mxCell id="pogYCEtZc0UTEIV33jCZ-193" value="send write address 2" style="rounded=0;whiteSpace=wrap;html=1;" vertex="1" parent="1">
          <mxGeometry x="460" y="900" width="60" height="40" as="geometry" />
        </mxCell>
        <mxCell id="pogYCEtZc0UTEIV33jCZ-194" value="send write data 2:1" style="rounded=0;whiteSpace=wrap;html=1;" vertex="1" parent="1">
          <mxGeometry x="520" y="900" width="60" height="40" as="geometry" />
        </mxCell>
        <mxCell id="pogYCEtZc0UTEIV33jCZ-195" value="send write data 2:2" style="rounded=0;whiteSpace=wrap;html=1;" vertex="1" parent="1">
          <mxGeometry x="580" y="900" width="60" height="40" as="geometry" />
        </mxCell>
        <mxCell id="pogYCEtZc0UTEIV33jCZ-196" value="..." style="text;html=1;align=center;verticalAlign=middle;whiteSpace=wrap;rounded=0;" vertex="1" parent="1">
          <mxGeometry x="640" y="900" width="20" height="40" as="geometry" />
        </mxCell>
        <mxCell id="pogYCEtZc0UTEIV33jCZ-197" value="send write data 2:n" style="rounded=0;whiteSpace=wrap;html=1;" vertex="1" parent="1">
          <mxGeometry x="660" y="900" width="60" height="40" as="geometry" />
        </mxCell>
        <mxCell id="pogYCEtZc0UTEIV33jCZ-198" value="" style="shape=curlyBracket;whiteSpace=wrap;html=1;rounded=1;labelPosition=left;verticalLabelPosition=middle;align=right;verticalAlign=middle;rotation=-90;" vertex="1" parent="1">
          <mxGeometry x="290" y="860" width="20" height="200" as="geometry" />
        </mxCell>
        <mxCell id="pogYCEtZc0UTEIV33jCZ-199" value="&amp;lt;write count 1&amp;gt;&amp;nbsp;&lt;span style=&quot;background-color: initial;&quot;&gt;messages&lt;/span&gt;" style="text;html=1;align=center;verticalAlign=middle;whiteSpace=wrap;rounded=0;" vertex="1" parent="1">
          <mxGeometry x="220" y="970" width="160" height="30" as="geometry" />
        </mxCell>
        <mxCell id="pogYCEtZc0UTEIV33jCZ-200" value="" style="shape=curlyBracket;whiteSpace=wrap;html=1;rounded=1;labelPosition=left;verticalLabelPosition=middle;align=right;verticalAlign=middle;rotation=-90;" vertex="1" parent="1">
          <mxGeometry x="610" y="860" width="20" height="200" as="geometry" />
        </mxCell>
        <mxCell id="pogYCEtZc0UTEIV33jCZ-201" value="&amp;lt;write count 2&amp;gt;&amp;nbsp;&lt;span style=&quot;background-color: initial;&quot;&gt;messages&lt;/span&gt;" style="text;html=1;align=center;verticalAlign=middle;whiteSpace=wrap;rounded=0;" vertex="1" parent="1">
          <mxGeometry x="540" y="970" width="160" height="30" as="geometry" />
        </mxCell>
        <mxCell id="pogYCEtZc0UTEIV33jCZ-202" value="" style="shape=curlyBracket;whiteSpace=wrap;html=1;rounded=1;labelPosition=left;verticalLabelPosition=middle;align=right;verticalAlign=middle;rotation=-90;" vertex="1" parent="1">
          <mxGeometry x="220" y="750" width="20" height="60" as="geometry" />
        </mxCell>
        <mxCell id="pogYCEtZc0UTEIV33jCZ-204" value="read delay" style="text;html=1;align=center;verticalAlign=middle;whiteSpace=wrap;rounded=0;" vertex="1" parent="1">
          <mxGeometry x="190" y="790" width="80" height="30" as="geometry" />
        </mxCell>
      </root>
    </mxGraphModel>
  </diagram>
</mxfile>
